<?xml version="1.0" encoding="iso-8859-1"?>
<!-- Generator: Adobe Illustrator 19.0.0, SVG Export Plug-In . SVG Version: 6.00 Build 0)  -->
<svg version="1.1" id="Layer_1" xmlns="http://www.w3.org/2000/svg" xmlns:xlink="http://www.w3.org/1999/xlink" x="0px" y="0px"
	 viewBox="0 0 512 512" style="enable-background:new 0 0 512 512;" xml:space="preserve">
<polygon style="fill:#00B4D7;" points="290.669,463.129 223.854,396.314 304.032,316.135 10.043,316.135 10.043,195.866 
	304.032,195.866 223.854,115.687 290.669,48.872 497.797,256.001 "/>
<polygon style="fill:#0093C4;" points="290.669,48.872 223.854,115.687 304.032,195.866 10.043,195.866 10.043,256.001 
	497.797,256.001 "/>
<path d="M290.669,477.331l-81.018-81.017l70.136-70.136H0V185.824h279.787l-70.136-70.136l81.018-81.018L512,256L290.669,477.331z
	 M238.055,396.314l52.614,52.613L483.595,256L290.669,63.074l-52.614,52.614l90.221,90.221H20.085v100.182h308.191L238.055,396.314z
	"/>
<rect x="268.398" y="164.11" transform="matrix(-0.7071 -0.7071 0.7071 -0.7071 484.2461 548.8857)" style="fill:#FFFFFF;" width="174.807" height="20.085"/>
<g>
</g>
<g>
</g>
<g>
</g>
<g>
</g>
<g>
</g>
<g>
</g>
<g>
</g>
<g>
</g>
<g>
</g>
<g>
</g>
<g>
</g>
<g>
</g>
<g>
</g>
<g>
</g>
<g>
</g>
</svg>
